<svg width="0" height="0" style="position:absolute"><symbol viewBox="0 0 24 24" id="account" xmlns="http://www.w3.org/2000/svg"><path fill="currentColor" d="M12 2C6.48 2 2 6.48 2 12s4.48 10 10 10 10-4.48 10-10S17.52 2 12 2zm0 3c1.66 0 3 1.34 3 3s-1.34 3-3 3-3-1.34-3-3 1.34-3 3-3zm0 14.2a7.2 7.2 0 0 1-6-3.22c.03-1.99 4-3.08 6-3.08 1.99 0 5.97 1.09 6 3.08a7.2 7.2 0 0 1-6 3.22z"/><path d="M0 0h24v24H0z" fill="none"/></symbol><symbol fill="currentColor" viewBox="0 0 24 24" id="add" xmlns="http://www.w3.org/2000/svg"><path d="M19 13h-6v6h-2v-6H5v-2h6V5h2v6h6v2z"/><path d="M0 0h24v24H0z" fill="none"/></symbol><symbol viewBox="0 0 24 24" id="add-comment" xmlns="http://www.w3.org/2000/svg"><path fill="none" d="M0 0h24v24H0V0z"/><path fill="currentColor" d="M21.99 4c0-1.1-.89-2-1.99-2H4c-1.1 0-2 .9-2 2v12c0 1.1.9 2 2 2h14l4 4-.01-18zM17 11h-4v4h-2v-4H7V9h4V5h2v4h4v2z"/></symbol><symbol viewBox="0 0 24 24" id="arrow-back" xmlns="http://www.w3.org/2000/svg"><path d="M0 0h24v24H0z" fill="none"/><path fill="currentColor" d="M20 11H7.83l5.59-5.59L12 4l-8 8 8 8 1.41-1.41L7.83 13H20v-2z"/></symbol><symbol fill="currentColor" viewBox="0 0 24 24" id="arrow-down" xmlns="http://www.w3.org/2000/svg"><path d="M16.59 8.59L12 13.17 7.41 8.59 6 10l6 6 6-6z"/><path d="M0 0h24v24H0z" fill="none"/></symbol><symbol fill="currentColor" viewBox="0 0 24 24" id="arrow-downward" xmlns="http://www.w3.org/2000/svg"><path d="M0 0h24v24H0V0z" fill="none"/><path d="M20 12l-1.41-1.41L13 16.17V4h-2v12.17l-5.58-5.59L4 12l8 8 8-8z"/></symbol><symbol viewBox="0 0 24 24" id="arrow-forward" xmlns="http://www.w3.org/2000/svg"><path d="M0 0h24v24H0z" fill="none"/><path fill="currentColor" d="M12 4l-1.41 1.41L16.17 11H4v2h12.17l-5.58 5.59L12 20l8-8z"/></symbol><symbol fill="currentColor" viewBox="0 0 24 24" id="arrow-left" xmlns="http://www.w3.org/2000/svg"><path d="M15.41 7.41L14 6l-6 6 6 6 1.41-1.41L10.83 12z"/><path d="M0 0h24v24H0z" fill="none"/></symbol><symbol fill="currentColor" viewBox="0 0 24 24" id="arrow-right" xmlns="http://www.w3.org/2000/svg"><path d="M10 6L8.59 7.41 13.17 12l-4.58 4.59L10 18l6-6z"/><path d="M0 0h24v24H0z" fill="none"/></symbol><symbol fill="currentColor" viewBox="0 0 24 24" id="arrow-up" xmlns="http://www.w3.org/2000/svg"><path d="M12 8l-6 6 1.41 1.41L12 10.83l4.59 4.58L18 14z"/><path d="M0 0h24v24H0z" fill="none"/></symbol><symbol fill="currentColor" viewBox="0 0 24 24" id="arrow-upward" xmlns="http://www.w3.org/2000/svg"><path d="M0 0h24v24H0V0z" fill="none"/><path d="M4 12l1.41 1.41L11 7.83V20h2V7.83l5.58 5.59L20 12l-8-8-8 8z"/></symbol><symbol viewBox="0 0 1000 1000" id="bar-bell" xmlns="http://www.w3.org/2000/svg"><g fill="currentColor"><path d="M718.02 34.82L693.2 59.64l123.69 123.69L940.36 306.8l24.82-24.82L990 257.16 866.31 133.47 742.84 10l-24.82 24.82zM578.79 48.85l-34.54 34.54 186.29 186.07 186.07 186.29 34.54-34.54c19-19 34.54-35.4 34.54-36.7 0-2.81-367.39-370.2-370.2-370.2-1.3.01-17.71 15.55-36.7 34.54zM492.44 135.2l-34.54 34.54 74.04 74.04 73.82 73.82-143.97 143.98L317.6 605.77l-73.82-73.82-74.04-74.04-34.54 34.53c-19 18.99-34.54 35.4-34.54 36.7 0 2.81 367.39 370.2 370.2 370.2 1.3 0 17.7-15.54 36.7-34.54l34.54-34.54-74.04-74.04-73.83-73.82 143.98-143.98L682.4 394.23l73.82 73.82 74.04 74.04 34.54-34.54c19-18.99 34.54-35.4 34.54-36.7 0-2.81-367.39-370.2-370.2-370.2-1.29.01-17.7 15.55-36.7 34.55zM48.21 579.44C29.64 598 14.32 614.41 14.32 615.48c0 2.81 367.39 370.2 370.2 370.2 1.29 0 17.7-15.54 36.7-34.54l34.54-34.54-185.65-185.63C168.01 628.87 84.04 545.33 83.39 545.33s-16.4 15.33-35.18 34.11zM34.18 718.67L10 742.84l123.69 123.69L257.16 990l24.82-24.82 24.82-24.82-123.03-123.05C116.2 749.53 60.29 694.27 59.65 694.27c-.65 0-12.09 11.01-25.47 24.4z"/></g></symbol><symbol viewBox="0 0 24 24" id="block" xmlns="http://www.w3.org/2000/svg"><path d="M0 0h24v24H0z" fill="none"/><path fill="currentColor" d="M12 2C6.48 2 2 6.48 2 12s4.48 10 10 10 10-4.48 10-10S17.52 2 12 2zM4 12c0-4.42 3.58-8 8-8 1.85 0 3.55.63 4.9 1.69L5.69 16.9A7.902 7.902 0 0 1 4 12zm8 8c-1.85 0-3.55-.63-4.9-1.69L18.31 7.1A7.902 7.902 0 0 1 20 12c0 4.42-3.58 8-8 8z"/></symbol><symbol fill="currentColor" viewBox="0 0 24 24" id="calendar" xmlns="http://www.w3.org/2000/svg"><path d="M9 11H7v2h2v-2zm4 0h-2v2h2v-2zm4 0h-2v2h2v-2zm2-7h-1V2h-2v2H8V2H6v2H5c-1.11 0-1.99.9-1.99 2L3 20a2 2 0 0 0 2 2h14c1.1 0 2-.9 2-2V6c0-1.1-.9-2-2-2zm0 16H5V9h14v11z"/><path d="M0 0h24v24H0z" fill="none"/></symbol><symbol viewBox="0 0 24 24" id="cellphone" xmlns="http://www.w3.org/2000/svg"><path fill="currentColor" d="M7 24h2v-2H7v2zm4 0h2v-2h-2v2zm4 0h2v-2h-2v2zM16 .01L8 0C6.9 0 6 .9 6 2v16c0 1.1.9 2 2 2h8c1.1 0 2-.9 2-2V2c0-1.1-.9-1.99-2-1.99zM16 16H8V4h8v12z"/><path d="M0 0h24v24H0z" fill="none"/></symbol><symbol viewBox="0 0 24 24" class="apicon-certificate" id="certificate" xmlns="http://www.w3.org/2000/svg"><path fill="currentColor" class="apprimary" d="M4 3h16a2 2 0 0 1 2 2v12a2 2 0 0 1-2 2H4a2 2 0 0 1-2-2V5c0-1.1.9-2 2-2zm16 12V7a2 2 0 0 1-2-2H6a2 2 0 0 1-2 2v8a2 2 0 0 1 2 2h12c0-1.1.9-2 2-2zM8 7h8a1 1 0 0 1 0 2H8a1 1 0 1 1 0-2z"/><path fill="currentColor" class="apsecondary" d="M11.65 18.23a4 4 0 1 1 4.7 0l2.5 3.44-2.23-.18-1.48 1.68-.59-4.2a4.04 4.04 0 0 1-1.1 0l-.6 4.2-1.47-1.68-2.23.18 2.5-3.44zM14 17a2 2 0 1 0 0-4 2 2 0 0 0 0 4z"/></symbol><symbol fill="currentColor" viewBox="0 0 24 24" id="chat" xmlns="http://www.w3.org/2000/svg"><path d="M0 0h24v24H0z" fill="none"/><path d="M20 2H4c-1.1 0-1.99.9-1.99 2L2 22l4-4h14c1.1 0 2-.9 2-2V4c0-1.1-.9-2-2-2zM6 9h12v2H6V9zm8 5H6v-2h8v2zm4-6H6V6h12v2z"/></symbol><symbol fill="currentColor" viewBox="0 0 24 24" id="check" xmlns="http://www.w3.org/2000/svg"><path d="M0 0h24v24H0z" fill="none"/><path d="M9 16.17L4.83 12l-1.42 1.41L9 19 21 7l-1.41-1.41z"/></symbol><symbol fill="currentColor" viewBox="0 0 24 24" id="clear" xmlns="http://www.w3.org/2000/svg"><path d="M19 6.41L17.59 5 12 10.59 6.41 5 5 6.41 10.59 12 5 17.59 6.41 19 12 13.41 17.59 19 19 17.59 13.41 12z"/><path d="M0 0h24v24H0z" fill="none"/></symbol><symbol viewBox="0 0 20 20" id="close" xmlns="http://www.w3.org/2000/svg"><g fill="currentColor" fill-rule="evenodd"><rect transform="rotate(45 9.839 9.839)" x="-1.661" y="8.839" width="23" height="2" rx="1"/><rect transform="scale(-1 1) rotate(45 0 -13.914)" x="-1.661" y="8.839" width="23" height="2" rx="1"/></g></symbol><symbol viewBox="0 0 24 24" id="collections" xmlns="http://www.w3.org/2000/svg"><path d="M0 0h24v24H0z" fill="none"/><path fill="currentColor" d="M22 16V4c0-1.1-.9-2-2-2H8c-1.1 0-2 .9-2 2v12c0 1.1.9 2 2 2h12c1.1 0 2-.9 2-2zm-11-4l2.03 2.71L16 11l4 5H8l3-4zM2 6v14c0 1.1.9 2 2 2h14v-2H4V6H2z"/></symbol><symbol viewBox="0 0 24 24" id="comment" xmlns="http://www.w3.org/2000/svg"><path fill="currentColor" d="M21.99 4c0-1.1-.89-2-1.99-2H4c-1.1 0-2 .9-2 2v12c0 1.1.9 2 2 2h14l4 4-.01-18zM18 14H6v-2h12v2zm0-3H6V9h12v2zm0-3H6V6h12v2z"/><path d="M0 0h24v24H0z" fill="none"/></symbol><symbol viewBox="0 0 24 24" id="credit-card" xmlns="http://www.w3.org/2000/svg"><path d="M0 0h24v24H0z" fill="none"/><path fill="currentColor" d="M20 4H4c-1.11 0-1.99.89-1.99 2L2 18c0 1.11.89 2 2 2h16c1.11 0 2-.89 2-2V6c0-1.11-.89-2-2-2zm0 14H4v-6h16v6zm0-10H4V6h16v2z"/></symbol><symbol fill="currentColor" viewBox="0 0 24 24" id="delete" xmlns="http://www.w3.org/2000/svg"><path d="M6 19c0 1.1.9 2 2 2h8c1.1 0 2-.9 2-2V7H6v12zM19 4h-3.5l-1-1h-5l-1 1H5v2h14V4z"/><path d="M0 0h24v24H0z" fill="none"/></symbol><symbol viewBox="0 0 24 24" class="ayicon-door-enter" id="door-enter" xmlns="http://www.w3.org/2000/svg"><path fill="currentColor" class="ayprimary" d="M13 4V3a1 1 0 0 1 1.27-.96l6.98 2A1 1 0 0 1 22 5v14a1 1 0 0 1-.75.97l-6.98 2A1 1 0 0 1 13 21v-1h-3a1 1 0 0 1-1-1v-2a1 1 0 0 1 2 0v1h2V6h-2v1a1 1 0 0 1-2 0V5a1 1 0 0 1 1-1h3z"/><path fill="currentColor" class="aysecondary" d="M7.59 11l-1.3-1.3c-.94-.94.47-2.35 1.42-1.4l3 3a1 1 0 0 1 0 1.4l-3 3c-.95.95-2.36-.46-1.42-1.4L7.6 13H3a1 1 0 0 1 0-2h4.59z"/></symbol><symbol viewBox="0 0 24 24" class="azicon-door-exit" id="door-exit" xmlns="http://www.w3.org/2000/svg"><path class="azprimary" fill="currentColor" d="M11 4h3a1 1 0 0 1 1 1v3a1 1 0 0 1-2 0V6h-2v12h2v-2a1 1 0 0 1 2 0v3a1 1 0 0 1-1 1h-3v1a1 1 0 0 1-1.27.96l-6.98-2A1 1 0 0 1 2 19V5a1 1 0 0 1 .75-.97l6.98-2A1 1 0 0 1 11 3v1z"/><path fill="currentColor" class="azsecondary" d="M18.59 11l-1.3-1.3c-.94-.94.47-2.35 1.42-1.4l3 3a1 1 0 0 1 0 1.4l-3 3c-.95.95-2.36-.46-1.42-1.4l1.3-1.3H14a1 1 0 0 1 0-2h4.59z"/></symbol><symbol fill="currentColor" viewBox="0 0 24 24" id="edit" xmlns="http://www.w3.org/2000/svg"><path d="M3 17.25V21h3.75L17.81 9.94l-3.75-3.75L3 17.25zM20.71 7.04a.996.996 0 0 0 0-1.41l-2.34-2.34a.996.996 0 0 0-1.41 0l-1.83 1.83 3.75 3.75 1.83-1.83z"/><path d="M0 0h24v24H0z" fill="none"/></symbol><symbol viewBox="0 0 24 24" id="email" xmlns="http://www.w3.org/2000/svg"><path fill="currentColor" d="M20 4H4c-1.1 0-1.99.9-1.99 2L2 18c0 1.1.9 2 2 2h16c1.1 0 2-.9 2-2V6c0-1.1-.9-2-2-2zm0 4l-8 5-8-5V6l8 5 8-5v2z"/><path d="M0 0h24v24H0z" fill="none"/></symbol><symbol viewBox="0 0 24 24" id="error" xmlns="http://www.w3.org/2000/svg"><path d="M0 0h24v24H0z" fill="none"/><path fill="currentColor" d="M12 2C6.48 2 2 6.48 2 12s4.48 10 10 10 10-4.48 10-10S17.52 2 12 2zm1 15h-2v-2h2v2zm0-4h-2V7h2v6z"/></symbol><symbol fill="currentColor" viewBox="0 0 24 24" id="euro" xmlns="http://www.w3.org/2000/svg"><path d="M15 18.5A6.48 6.48 0 0 1 9.24 15H15v-2H8.58c-.05-.33-.08-.66-.08-1s.03-.67.08-1H15V9H9.24A6.491 6.491 0 0 1 15 5.5c1.61 0 3.09.59 4.23 1.57L21 5.3A8.955 8.955 0 0 0 15 3c-3.92 0-7.24 2.51-8.48 6H3v2h3.06a8.262 8.262 0 0 0 0 2H3v2h3.52c1.24 3.49 4.56 6 8.48 6 2.31 0 4.41-.87 6-2.3l-1.78-1.77c-1.13.98-2.6 1.57-4.22 1.57z"/><path d="M0 0h24v24H0z" fill="none"/></symbol><symbol viewBox="0 0 24 24" id="fastfood" xmlns="http://www.w3.org/2000/svg"><path fill="currentColor" d="M18.06 22.99h1.66c.84 0 1.53-.64 1.63-1.46L23 5.05h-5V1h-1.97v4.05h-4.97l.3 2.34c1.71.47 3.31 1.32 4.27 2.26 1.44 1.42 2.43 2.89 2.43 5.29v8.05zM1 21.99V21h15.03v.99c0 .55-.45 1-1.01 1H2.01c-.56 0-1.01-.45-1.01-1zm15.03-7c0-8-15.03-8-15.03 0h15.03zM1.02 17h15v2h-15z"/><path fill="none" d="M0 0h24v24H0z"/></symbol><symbol viewBox="0 0 50 50" id="file" xmlns="http://www.w3.org/2000/svg"><path d="M40.867 8v36.754H10.571v-2h28.296V8h2zm-4.355-4v36.754H6.215V4h30.297z" fill="currentColor" fill-rule="nonzero"/></symbol><symbol viewBox="0 0 50 50" id="file-shared" xmlns="http://www.w3.org/2000/svg"><g fill="none" fill-rule="nonzero"><path d="M40.867 8v36.754H10.571v-2h28.296V8h2zm-4.355-4v36.754H6.215V4h30.297z" fill="currentColor"/><path d="M15.286 24.11c.493-.471 1.307-.187 1.41.493l.008.113v2.071H29.99c.584 0 1.064.441 1.126 1.008l.006.124c0 .568-.42 1.046-.995 1.124l-.137.008-13.287.001v2.188c0 .642-.682 1.027-1.232.738l-.096-.058-.087-.072-3.424-3.246a.838.838 0 0 1-.105-1.096l.015-.019.087-.1zm12.155-11.198l3.424 3.277.088.1.014.018c.242.338.2.807-.105 1.096l-3.424 3.246-.087.072-.096.058c-.55.29-1.232-.096-1.232-.738v-2.187l-13.287-.001-.136-.009a1.136 1.136 0 0 1-.996-1.124l.006-.123a1.133 1.133 0 0 1 1.126-1.009l13.288.001-.001-2.072.008-.113c.103-.68.917-.964 1.41-.492z" fill="var(--sgbp-icon-color-secondary)"/></g></symbol><symbol viewBox="0 0 50 50" id="folder" xmlns="http://www.w3.org/2000/svg"><path d="M0 11.167V7.698C0 6.76.76 6 1.698 6h15.575c.647 0 1.237.367 1.523.948l2.079 4.219h21.31c.828 0 1.499.67 1.499 1.499v29.272c0 .828-.671 1.499-1.499 1.499H1.498C.671 43.437 0 42.766 0 41.938V11.167z" fill="currentColor" fill-rule="nonzero"/></symbol><symbol viewBox="0 0 50 50" id="folder-open" xmlns="http://www.w3.org/2000/svg"><path d="M1.514 43.718c-.828 0-1.499-.67-1.499-1.498l-.001-.725a3.004 3.004 0 0 1-.006-1.525l.007-.031V7.979c0-.937.76-1.697 1.699-1.697h15.574c.647 0 1.238.367 1.524.947l2.078 4.22H42.2c.828 0 1.5.67 1.5 1.498l-.001 1.908h3.388a3 3 0 0 1 2.995 2.823l.005.177a3 3 0 0 1-.057.585l-4.547 22.864a3 3 0 0 1-2.943 2.414H1.514zm45.573-26.863H43.7v23.163l4.37-21.968a1 1 0 0 0 .014-.097l.004-.098a1 1 0 0 0-1-1z" fill="currentColor" fill-rule="nonzero"/></symbol><symbol viewBox="0 0 50 50" id="folder-shared" xmlns="http://www.w3.org/2000/svg"><g fill="none" fill-rule="nonzero"><path d="M0 11.167V7.698C0 6.76.76 6 1.698 6h15.575c.647 0 1.237.367 1.523.948l2.079 4.219h21.31c.828 0 1.499.67 1.499 1.499v29.272c0 .828-.671 1.499-1.499 1.499H1.498C.671 43.437 0 42.766 0 41.938V11.167z" fill="currentColor"/><path d="M15.765 29.027c.492-.472 1.307-.188 1.41.492l.008.113v2.072l13.286-.001c.584 0 1.065.442 1.126 1.009l.007.123c0 .569-.421 1.047-.996 1.124l-.137.009-13.287.001v2.187c0 .642-.682 1.028-1.232.739l-.095-.059-.087-.071-3.424-3.247a.838.838 0 0 1-.105-1.096l.014-.018.088-.1zm12.154-11.199l3.424 3.278.088.1.014.018c.243.338.2.806-.105 1.096l-3.424 3.246-.087.072-.095.058c-.55.29-1.233-.096-1.233-.738V22.77l-13.287-.002-.136-.008a1.136 1.136 0 0 1-.996-1.124l.007-.124a1.133 1.133 0 0 1 1.125-1.008h13.288v-2.071l.007-.113c.103-.68.918-.964 1.41-.493z" fill="var(--sgbp-icon-color-secondary)"/></g></symbol><symbol viewBox="0 0 50 50" id="folder-shared-open" xmlns="http://www.w3.org/2000/svg"><g fill="none" fill-rule="nonzero"><path d="M1.601 43.718c-.827 0-1.498-.67-1.498-1.498L.1 41.495a3.004 3.004 0 0 1-.006-1.525l.007-.031V7.979c0-.937.761-1.697 1.7-1.697h15.574c.647 0 1.237.367 1.523.947l2.079 4.22h21.31c.828 0 1.499.67 1.499 1.498l-.001 1.908h3.389a3 3 0 0 1 2.995 2.823l.005.177a3 3 0 0 1-.058.585L45.57 41.304a3 3 0 0 1-2.942 2.414H1.6zm45.574-26.863h-3.389v23.163l4.37-21.968a1 1 0 0 0 .014-.097l.005-.098a1 1 0 0 0-1-1z" fill="currentColor"/><path d="M15.765 29.027c.492-.472 1.307-.188 1.41.492l.008.113v2.072l13.286-.001c.584 0 1.065.442 1.126 1.009l.007.123c0 .569-.421 1.047-.996 1.124l-.137.009-13.287.001v2.187c0 .642-.682 1.028-1.232.739l-.095-.059-.087-.071-3.424-3.247a.838.838 0 0 1-.105-1.096l.014-.018.088-.1zm12.154-11.199l3.424 3.278.088.1.014.018c.243.338.2.806-.105 1.096l-3.424 3.246-.087.072-.095.058c-.55.29-1.233-.096-1.233-.738V22.77l-13.287-.002-.136-.008a1.136 1.136 0 0 1-.996-1.124l.007-.124a1.133 1.133 0 0 1 1.125-1.008h13.288v-2.071l.007-.113c.103-.68.918-.964 1.41-.493z" fill="var(--sgbp-icon-color-secondary)"/></g></symbol><symbol viewBox="0 0 24 24" id="globe" xmlns="http://www.w3.org/2000/svg"><path d="M0 0h24v24H0z" fill="none"/><path fill="currentColor" d="M12 2C6.48 2 2 6.48 2 12s4.48 10 10 10 10-4.48 10-10S17.52 2 12 2zm-1 17.93c-3.95-.49-7-3.85-7-7.93 0-.62.08-1.21.21-1.79L9 15v1c0 1.1.9 2 2 2v1.93zm6.9-2.54c-.26-.81-1-1.39-1.9-1.39h-1v-3c0-.55-.45-1-1-1H8v-2h2c.55 0 1-.45 1-1V7h2c1.1 0 2-.9 2-2v-.41c2.93 1.19 5 4.06 5 7.41 0 2.08-.8 3.97-2.1 5.39z"/></symbol><symbol viewBox="0 0 24 24" id="grid" xmlns="http://www.w3.org/2000/svg"><path d="M0 0h24v24H0z" fill="none"/><path fill="currentColor" d="M20 2H4c-1.1 0-2 .9-2 2v16c0 1.1.9 2 2 2h16c1.1 0 2-.9 2-2V4c0-1.1-.9-2-2-2zM8 20H4v-4h4v4zm0-6H4v-4h4v4zm0-6H4V4h4v4zm6 12h-4v-4h4v4zm0-6h-4v-4h4v4zm0-6h-4V4h4v4zm6 12h-4v-4h4v4zm0-6h-4v-4h4v4zm0-6h-4V4h4v4z"/></symbol><symbol viewBox="0 0 24 24" id="headset" xmlns="http://www.w3.org/2000/svg"><path d="M0 0h24v24H0z" opacity=".1" fill="none"/><path fill="currentColor" d="M12 1a9 9 0 0 0-9 9v7c0 1.66 1.34 3 3 3h3v-8H5v-2c0-3.87 3.13-7 7-7s7 3.13 7 7v2h-4v8h4v1h-7v2h6c1.66 0 3-1.34 3-3V10a9 9 0 0 0-9-9z"/></symbol><symbol viewBox="0 0 24 24" id="help" xmlns="http://www.w3.org/2000/svg"><path fill="none" d="M0 0h24v24H0z"/><path fill="currentColor" d="M11 18h2v-2h-2v2zm1-16C6.48 2 2 6.48 2 12s4.48 10 10 10 10-4.48 10-10S17.52 2 12 2zm0 18c-4.41 0-8-3.59-8-8s3.59-8 8-8 8 3.59 8 8-3.59 8-8 8zm0-14c-2.21 0-4 1.79-4 4h2c0-1.1.9-2 2-2s2 .9 2 2c0 2-3 1.75-3 5h2c0-2.25 3-2.5 3-5 0-2.21-1.79-4-4-4z"/></symbol><symbol viewBox="0 0 24 24" fill-rule="evenodd" clip-rule="evenodd" stroke-linejoin="round" stroke-miterlimit="2" id="house" xmlns="http://www.w3.org/2000/svg"><path fill="none" d="M0 0h24v24H0z"/><path fill="currentColor" d="M19.957 8.999V2.975h-3.41V5.93L12 1.838.633 12.068h3.41v9.094h5.684v-6.82h4.546v6.82h5.684v-9.094h3.41l-3.41-3.069zm-10.23.796A2.28 2.28 0 0 1 12 7.522a2.28 2.28 0 0 1 2.273 2.273H9.727z" fill-rule="nonzero"/></symbol><symbol fill="currentColor" viewBox="0 0 24 24" id="info-circle" xmlns="http://www.w3.org/2000/svg"><path d="M0 0h24v24H0z" fill="none"/><path d="M11 17h2v-6h-2v6zm1-15C6.48 2 2 6.48 2 12s4.48 10 10 10 10-4.48 10-10S17.52 2 12 2zm0 18c-4.41 0-8-3.59-8-8s3.59-8 8-8 8 3.59 8 8-3.59 8-8 8zM11 9h2V7h-2v2z"/></symbol><symbol viewBox="0 0 24 24" id="list" xmlns="http://www.w3.org/2000/svg"><g fill="none"><path d="M0 0h24v24H0V0z"/><path opacity=".87" d="M0 0h24v24H0V0z"/></g><g fill="currentColor"><path d="M3 13h2v-2H3v2zm0 4h2v-2H3v2zm0-8h2V7H3v2zm4 4h14v-2H7v2zm0 4h14v-2H7v2zM7 7v2h14V7H7z"/><path d="M3 13h2v-2H3v2zm0 4h2v-2H3v2zm0-8h2V7H3v2zm4 4h14v-2H7v2zm0 4h14v-2H7v2zM7 7v2h14V7H7z"/></g></symbol><symbol viewBox="0 0 24 24" id="list-check" xmlns="http://www.w3.org/2000/svg"><clipPath id="bsa"><path d="M0 0h24v24H0V0z"/></clipPath><path clip-path="url(#bsa)" fill="currentColor" d="M14 10H2v2h12v-2zm0-4H2v2h12V6zM2 16h8v-2H2v2zm19.5-4.5L23 13l-6.99 7-4.51-4.5L13 14l3.01 3 5.49-5.5z"/></symbol><symbol viewBox="0 0 24 24" id="map" xmlns="http://www.w3.org/2000/svg"><path fill="none" d="M0 0h24v24H0V0z"/><path d="M20.5 3l-.16.03L15 5.1 9 3 3.36 4.9c-.21.07-.36.25-.36.48V20.5c0 .28.22.5.5.5l.16-.03L9 18.9l6 2.1 5.64-1.9c.21-.07.36-.25.36-.48V3.5c0-.28-.22-.5-.5-.5zM10 5.47l4 1.4v11.66l-4-1.4V5.47zm-5 .99l3-1.01v11.7l-3 1.16V6.46zm14 11.08l-3 1.01V6.86l3-1.16v11.84z" fill="currentColor"/></symbol><symbol viewBox="0 0 24 24" class="buicon-mood-sad" id="mood-negative" xmlns="http://www.w3.org/2000/svg"><circle cx="12" cy="12" r="10" fill="currentColor"/><path fill="#fff" d="M16.47 18H7.53a1 1 0 0 1-.75-1.67 6.98 6.98 0 0 1 10.44 0 1 1 0 0 1-.75 1.67zM8.5 11a1.5 1.5 0 1 1 0-3 1.5 1.5 0 0 1 0 3zm7 0a1.5 1.5 0 1 1 0-3 1.5 1.5 0 0 1 0 3z"/></symbol><symbol viewBox="0 0 24 24" class="bvicon-mood-neutral" id="mood-neutral" xmlns="http://www.w3.org/2000/svg"><circle cx="12" cy="12" r="10" fill="currentColor"/><path fill="#fff" d="M8 15h8a1 1 0 0 1 0 2H8a1 1 0 0 1 0-2zm.5-4a1.5 1.5 0 1 1 0-3 1.5 1.5 0 0 1 0 3zm7 0a1.5 1.5 0 1 1 0-3 1.5 1.5 0 0 1 0 3z"/></symbol><symbol viewBox="0 0 24 24" class="bwicon-mood-happy" id="mood-positive" xmlns="http://www.w3.org/2000/svg"><circle cx="12" cy="12" r="10" fill="currentColor"/><path fill="#fff" d="M6.8 14h10.4a1 1 0 0 1 .86 1.5 7 7 0 0 1-12.12 0A1 1 0 0 1 6.8 14zm1.7-3a1.5 1.5 0 1 1 0-3 1.5 1.5 0 0 1 0 3zm7 0a1.5 1.5 0 1 1 0-3 1.5 1.5 0 0 1 0 3z"/></symbol><symbol viewBox="0 0 24 24" id="more-horizontal" xmlns="http://www.w3.org/2000/svg"><path d="M0 0h24v24H0z" fill="none"/><path fill="currentColor" d="M6 10c-1.1 0-2 .9-2 2s.9 2 2 2 2-.9 2-2-.9-2-2-2zm12 0c-1.1 0-2 .9-2 2s.9 2 2 2 2-.9 2-2-.9-2-2-2zm-6 0c-1.1 0-2 .9-2 2s.9 2 2 2 2-.9 2-2-.9-2-2-2z"/></symbol><symbol viewBox="0 0 24 24" id="more-vertical" xmlns="http://www.w3.org/2000/svg"><path d="M0 0h24v24H0z" fill="none"/><path fill="currentColor" d="M12 8c1.1 0 2-.9 2-2s-.9-2-2-2-2 .9-2 2 .9 2 2 2zm0 2c-1.1 0-2 .9-2 2s.9 2 2 2 2-.9 2-2-.9-2-2-2zm0 6c-1.1 0-2 .9-2 2s.9 2 2 2 2-.9 2-2-.9-2-2-2z"/></symbol><symbol viewBox="0 0 24 24" id="notifications" xmlns="http://www.w3.org/2000/svg"><path d="M0 0h24v24H0z" fill="none"/><path fill="currentColor" d="M12 22c1.1 0 2-.9 2-2h-4c0 1.1.9 2 2 2zm6-6v-5c0-3.07-1.63-5.64-4.5-6.32V4c0-.83-.67-1.5-1.5-1.5s-1.5.67-1.5 1.5v.68C7.64 5.36 6 7.92 6 11v5l-2 2v1h16v-1l-2-2zm-2 1H8v-6c0-2.48 1.51-4.5 4-4.5s4 2.02 4 4.5v6z"/></symbol><symbol viewBox="0 0 24 24" id="pdf" xmlns="http://www.w3.org/2000/svg"><path fill="none" d="M0 0h24v24H0z"/><path fill="currentColor" d="M20 2H8c-1.1 0-2 .9-2 2v12c0 1.1.9 2 2 2h12c1.1 0 2-.9 2-2V4c0-1.1-.9-2-2-2zm-8.5 7.5c0 .83-.67 1.5-1.5 1.5H9v2H7.5V7H10c.83 0 1.5.67 1.5 1.5v1zm5 2c0 .83-.67 1.5-1.5 1.5h-2.5V7H15c.83 0 1.5.67 1.5 1.5v3zm4-3H19v1h1.5V11H19v2h-1.5V7h3v1.5zM9 9.5h1v-1H9v1zM4 6H2v14c0 1.1.9 2 2 2h14v-2H4V6zm10 5.5h1v-3h-1v3z"/></symbol><symbol viewBox="0 0 24 24" id="phone" xmlns="http://www.w3.org/2000/svg"><path d="M0 0h24v24H0z" fill="none"/><path fill="currentColor" d="M6.62 10.79c1.44 2.83 3.76 5.14 6.59 6.59l2.2-2.2c.27-.27.67-.36 1.02-.24 1.12.37 2.33.57 3.57.57.55 0 1 .45 1 1V20c0 .55-.45 1-1 1-9.39 0-17-7.61-17-17 0-.55.45-1 1-1h3.5c.55 0 1 .45 1 1 0 1.25.2 2.45.57 3.57.11.35.03.74-.25 1.02l-2.2 2.2z"/></symbol><symbol viewBox="0 0 24 24" id="photo-camera" xmlns="http://www.w3.org/2000/svg"><circle fill="currentColor" cx="12" cy="12" r="3.2"/><path fill="currentColor" d="M9 2L7.17 4H4c-1.1 0-2 .9-2 2v12c0 1.1.9 2 2 2h16c1.1 0 2-.9 2-2V6c0-1.1-.9-2-2-2h-3.17L15 2H9zm3 15c-2.76 0-5-2.24-5-5s2.24-5 5-5 5 2.24 5 5-2.24 5-5 5z"/><path d="M0 0h24v24H0z" fill="none"/></symbol><symbol viewBox="0 0 24 24" id="photo-gallery" xmlns="http://www.w3.org/2000/svg"><path d="M0 0h24v24H0z" fill="none"/><path fill="currentColor" d="M22 16V4c0-1.1-.9-2-2-2H8c-1.1 0-2 .9-2 2v12c0 1.1.9 2 2 2h12c1.1 0 2-.9 2-2zm-11-4l2.03 2.71L16 11l4 5H8l3-4zM2 6v14c0 1.1.9 2 2 2h14v-2H4V6H2z"/></symbol><symbol viewBox="0 0 24 24" class="ceicon-pin" id="pin" xmlns="http://www.w3.org/2000/svg"><path fill="currentColor" d="M2.24 20.35l6.5-7.5a1 1 0 0 1 1.47-.06l1 1a1 1 0 0 1-.06 1.47l-7.5 6.5c-.93.8-2.22-.48-1.4-1.41z"/><path fill="currentColor" d="M15 15.41V18a1 1 0 0 1-.3.7l-1 1a1 1 0 0 1-1.4 0l-8-8a1 1 0 0 1 0-1.4l1-1A1 1 0 0 1 6 9h2.59L13 4.59V3a1 1 0 0 1 1.7-.7l7 7A1 1 0 0 1 21 11h-1.59L15 15.41z"/></symbol><symbol viewBox="0 0 24 24" id="place" xmlns="http://www.w3.org/2000/svg"><path fill="currentColor" d="M12 2C8.13 2 5 5.13 5 9c0 5.25 7 13 7 13s7-7.75 7-13c0-3.87-3.13-7-7-7zm0 9.5a2.5 2.5 0 0 1 0-5 2.5 2.5 0 0 1 0 5z"/><path d="M0 0h24v24H0z" fill="none"/></symbol><symbol viewBox="0 0 24 24" id="power-switch" xmlns="http://www.w3.org/2000/svg"><path fill="none" d="M0 0h24v24H0V0z"/><path fill="currentColor" d="M13 3h-2v10h2V3zm4.83 2.17l-1.42 1.42A6.92 6.92 0 0 1 19 12c0 3.87-3.13 7-7 7A6.995 6.995 0 0 1 7.58 6.58L6.17 5.17A8.932 8.932 0 0 0 3 12a9 9 0 0 0 18 0c0-2.74-1.23-5.18-3.17-6.83z"/></symbol><symbol viewBox="0 0 24 24" id="redo" xmlns="http://www.w3.org/2000/svg"><path d="M0 0h24v24H0z" fill="none"/><path fill="currentColor" d="M18.4 10.6C16.55 8.99 14.15 8 11.5 8c-4.65 0-8.58 3.03-9.96 7.22L3.9 16a8.002 8.002 0 0 1 7.6-5.5c1.95 0 3.73.72 5.12 1.88L13 16h9V7l-3.6 3.6z"/></symbol><symbol viewBox="0 0 24 24" id="refresh" xmlns="http://www.w3.org/2000/svg"><path fill="currentColor" d="M17.65 6.35A7.958 7.958 0 0 0 12 4c-4.42 0-7.99 3.58-7.99 8s3.57 8 7.99 8c3.73 0 6.84-2.55 7.73-6h-2.08A5.99 5.99 0 0 1 12 18c-3.31 0-6-2.69-6-6s2.69-6 6-6c1.66 0 3.14.69 4.22 1.78L13 11h7V4l-2.35 2.35z"/><path d="M0 0h24v24H0z" fill="none"/></symbol><symbol viewBox="0 0 24 24" id="save" xmlns="http://www.w3.org/2000/svg"><path fill="currentColor" d="M19 12v7H5v-7H3v7c0 1.1.9 2 2 2h14c1.1 0 2-.9 2-2v-7h-2zm-6 .67l2.59-2.58L17 11.5l-5 5-5-5 1.41-1.41L11 12.67V3h2z"/><path fill="none" d="M0 0h24v24H0z"/></symbol><symbol viewBox="0 0 24 24" id="search" xmlns="http://www.w3.org/2000/svg"><path fill="currentColor" d="M15.5 14h-.79l-.28-.27A6.471 6.471 0 0 0 16 9.5 6.5 6.5 0 1 0 9.5 16c1.61 0 3.09-.59 4.23-1.57l.27.28v.79l5 4.99L20.49 19l-4.99-5zm-6 0C7.01 14 5 11.99 5 9.5S7.01 5 9.5 5 14 7.01 14 9.5 11.99 14 9.5 14z"/><path d="M0 0h24v24H0z" fill="none"/></symbol><symbol viewBox="0 0 24 24" id="security" xmlns="http://www.w3.org/2000/svg"><path fill="currentColor" d="M12 1L3 5v6c0 5.55 3.84 10.74 9 12 5.16-1.26 9-6.45 9-12V5l-9-4zm0 10.99h7c-.53 4.12-3.28 7.79-7 8.94V12H5V6.3l7-3.11v8.8z"/><path d="M0 0h24v24H0z" fill="none"/></symbol><symbol viewBox="0 0 20 20" id="settings" xmlns="http://www.w3.org/2000/svg"><path fill="none" d="M0 0h20v20H0V0z"/><path fill="currentColor" d="M15.95 10.78c.03-.25.05-.51.05-.78s-.02-.53-.06-.78l1.69-1.32c.15-.12.19-.34.1-.51l-1.6-2.77c-.1-.18-.31-.24-.49-.18l-1.99.8c-.42-.32-.86-.58-1.35-.78L12 2.34a.4.4 0 0 0-.4-.34H8.4c-.2 0-.36.14-.39.34l-.3 2.12c-.49.2-.94.47-1.35.78l-1.99-.8c-.18-.07-.39 0-.49.18l-1.6 2.77c-.1.18-.06.39.1.51l1.69 1.32c-.04.25-.07.52-.07.78s.02.53.06.78L2.37 12.1c-.15.12-.19.34-.1.51l1.6 2.77c.1.18.31.24.49.18l1.99-.8c.42.32.86.58 1.35.78l.3 2.12c.04.2.2.34.4.34h3.2c.2 0 .37-.14.39-.34l.3-2.12c.49-.2.94-.47 1.35-.78l1.99.8c.18.07.39 0 .49-.18l1.6-2.77c.1-.18.06-.39-.1-.51l-1.67-1.32zM10 13c-1.65 0-3-1.35-3-3s1.35-3 3-3 3 1.35 3 3-1.35 3-3 3z"/></symbol><symbol fill="currentColor" viewBox="0 0 24 24" id="share" xmlns="http://www.w3.org/2000/svg"><path d="M0 0h24v24H0z" fill="none"/><path d="M18 16.08c-.76 0-1.44.3-1.96.77L8.91 12.7c.05-.23.09-.46.09-.7s-.04-.47-.09-.7l7.05-4.11c.54.5 1.25.81 2.04.81 1.66 0 3-1.34 3-3s-1.34-3-3-3-3 1.34-3 3c0 .24.04.47.09.7L8.04 9.81C7.5 9.31 6.79 9 6 9c-1.66 0-3 1.34-3 3s1.34 3 3 3c.79 0 1.5-.31 2.04-.81l7.12 4.16c-.05.21-.08.43-.08.65 0 1.61 1.31 2.92 2.92 2.92 1.61 0 2.92-1.31 2.92-2.92s-1.31-2.92-2.92-2.92z"/></symbol><symbol viewBox="0 0 24 24" id="short-text" xmlns="http://www.w3.org/2000/svg"><path fill="currentColor" d="M4 9h16v2H4zm0 4h10v2H4z"/></symbol><symbol fill="currentColor" viewBox="0 0 24 24" id="sports" xmlns="http://www.w3.org/2000/svg"><path fill="none" d="M0 0h24v24H0z"/><path d="M11.23 6c-1.66 0-3.22.66-4.36 1.73C6.54 6.73 5.61 6 4.5 6a2.5 2.5 0 0 0 0 5c.21 0 .41-.03.61-.08-.05.25-.09.51-.1.78a6.006 6.006 0 0 0 6.68 6.27c2.55-.28 4.68-2.26 5.19-4.77.15-.71.15-1.4.06-2.06-.09-.6.38-1.13.99-1.13H22V6H11.23zM4.5 9c-.28 0-.5-.22-.5-.5s.22-.5.5-.5.5.22.5.5-.22.5-.5.5zm6.5 6c-1.66 0-3-1.34-3-3s1.34-3 3-3 3 1.34 3 3-1.34 3-3 3z"/><circle cx="11" cy="12" r="2"/></symbol><symbol fill="currentColor" viewBox="0 0 24 24" id="sports-baseball" xmlns="http://www.w3.org/2000/svg"><path fill="none" d="M0 0h24v24H0z"/><path d="M3.81 6.28C2.67 7.9 2 9.87 2 12s.67 4.1 1.81 5.72C6.23 16.95 8 14.68 8 12S6.23 7.05 3.81 6.28zM20.19 6.28C17.77 7.05 16 9.32 16 12s1.77 4.95 4.19 5.72C21.33 16.1 22 14.13 22 12s-.67-4.1-1.81-5.72z"/><path d="M14 12c0-3.28 1.97-6.09 4.79-7.33C17.01 3.02 14.63 2 12 2S6.99 3.02 5.21 4.67C8.03 5.91 10 8.72 10 12s-1.97 6.09-4.79 7.33C6.99 20.98 9.37 22 12 22s5.01-1.02 6.79-2.67A8.002 8.002 0 0 1 14 12z"/></symbol><symbol fill="currentColor" viewBox="0 0 24 24" id="sports-basketball" xmlns="http://www.w3.org/2000/svg"><path fill="none" d="M0 0h24v24H0z"/><path d="M17.09 11h4.86a9.951 9.951 0 0 0-1.54-4.4 5.987 5.987 0 0 0-3.32 4.4zM6.91 11a5.987 5.987 0 0 0-3.32-4.4A9.951 9.951 0 0 0 2.05 11h4.86zM15.07 11a7.994 7.994 0 0 1 4.06-6A9.969 9.969 0 0 0 13 2.05V11h2.07zM8.93 11H11V2.05A9.943 9.943 0 0 0 4.87 5a7.994 7.994 0 0 1 4.06 6zM15.07 13H13v8.95A9.943 9.943 0 0 0 19.13 19a7.994 7.994 0 0 1-4.06-6zM3.59 17.4A6.029 6.029 0 0 0 6.91 13H2.05c.16 1.61.71 3.11 1.54 4.4zM17.09 13a5.987 5.987 0 0 0 3.32 4.4 9.951 9.951 0 0 0 1.54-4.4h-4.86zM8.93 13a7.994 7.994 0 0 1-4.06 6A9.969 9.969 0 0 0 11 21.95V13H8.93z"/></symbol><symbol fill="currentColor" viewBox="0 0 24 24" id="sports-cricket" xmlns="http://www.w3.org/2000/svg"><path fill="none" d="M0 0h24v24H0z"/><path d="M15.05 12.81L6.56 4.32a.996.996 0 0 0-1.41 0L2.32 7.15a.996.996 0 0 0 0 1.41l8.49 8.49c.39.39 1.02.39 1.41 0l2.83-2.83a.996.996 0 0 0 0-1.41zM14.341 17.756l1.414-1.414 4.243 4.243-1.414 1.414z"/><circle cx="18.5" cy="5.5" r="3.5"/></symbol><symbol fill="currentColor" viewBox="0 0 24 24" id="sports-esports" xmlns="http://www.w3.org/2000/svg"><path fill="none" d="M0 0h24v24H0z"/><path d="M21.58 16.09l-1.09-7.66A3.996 3.996 0 0 0 16.53 5H7.47C5.48 5 3.79 6.46 3.51 8.43l-1.09 7.66C2.2 17.63 3.39 19 4.94 19c.68 0 1.32-.27 1.8-.75L9 16h6l2.25 2.25c.48.48 1.13.75 1.8.75 1.56 0 2.75-1.37 2.53-2.91zM11 11H9v2H8v-2H6v-1h2V8h1v2h2v1zm4-1c-.55 0-1-.45-1-1s.45-1 1-1 1 .45 1 1-.45 1-1 1zm2 3c-.55 0-1-.45-1-1s.45-1 1-1 1 .45 1 1-.45 1-1 1z"/></symbol><symbol fill="currentColor" viewBox="0 0 24 24" id="sports-football" xmlns="http://www.w3.org/2000/svg"><path fill="none" d="M0 0h24v24H0z"/><path d="M3.02 15.62c-.08 2.42.32 4.34.67 4.69s2.28.76 4.69.67l-5.36-5.36zM13.08 3.28c-2.33.42-4.79 1.34-6.62 3.18s-2.76 4.29-3.18 6.62l7.63 7.63c2.34-.41 4.79-1.34 6.62-3.18s2.76-4.29 3.18-6.62l-7.63-7.63zM9.9 15.5l-1.4-1.4 5.6-5.6 1.4 1.4-5.6 5.6zM20.98 8.38c.08-2.42-.32-4.34-.67-4.69s-2.28-.76-4.69-.67l5.36 5.36z"/></symbol><symbol fill="currentColor" viewBox="0 0 24 24" id="sports-golf" xmlns="http://www.w3.org/2000/svg"><path fill="none" d="M0 0h24v24H0z"/><path d="M12 16c3.87 0 7-3.13 7-7s-3.13-7-7-7-7 3.13-7 7 3.13 7 7 7zm0-12c2.76 0 5 2.24 5 5s-2.24 5-5 5-5-2.24-5-5 2.24-5 5-5z"/><circle cx="10" cy="8" r="1"/><circle cx="14" cy="8" r="1"/><circle cx="12" cy="6" r="1"/><path d="M7 19h2c1.1 0 2 .9 2 2v1h2v-1c0-1.1.9-2 2-2h2v-2H7v2z"/></symbol><symbol fill="currentColor" viewBox="0 0 24 24" id="sports-handball" xmlns="http://www.w3.org/2000/svg"><path fill="none" d="M0 0h24v24H0z"/><path d="M14.27 6c-.55.95-.22 2.18.73 2.73.95.55 2.18.22 2.73-.73.55-.95.22-2.18-.73-2.73-.95-.55-2.18-.22-2.73.73z"/><path d="M15.84 10.41l-2.6-1.5c-2.38-1.38-3.2-4.44-1.82-6.82l-1.73-1C8.1 3.83 8.6 7.21 10.66 9.4l-5.15 8.92 1.73 1 1.5-2.6 1.73 1-3 5.2 1.73 1 6.29-10.89a5.002 5.002 0 0 1 .31 5.46l1.73 1c1.6-2.75 1.28-6.58-1.69-9.08zM12.75 3.8c.72.41 1.63.17 2.05-.55.41-.72.17-1.63-.55-2.05a1.501 1.501 0 0 0-1.5 2.6z"/></symbol><symbol fill="currentColor" viewBox="0 0 24 24" id="sports-hockey" xmlns="http://www.w3.org/2000/svg"><path fill="none" d="M0 0h24v24H0z"/><path d="M2 17v3h2v-4H3c-.55 0-1 .45-1 1zM9 16H5v4l4.69-.01c.38 0 .72-.21.89-.55l.87-1.9-1.59-3.48L9 16zM21.71 16.29A.997.997 0 0 0 21 16h-1v4h2v-3c0-.28-.11-.53-.29-.71zM13.6 12.84L17.65 4H14.3l-1.76 3.97-.49 1.1-.05.14L9.7 4H6.35l4.05 8.84 1.52 3.32.08.18 1.42 3.1c.17.34.51.55.89.55L19 20v-4h-4l-1.4-3.16z"/></symbol><symbol fill="currentColor" viewBox="0 0 24 24" id="sports-kabaddi" xmlns="http://www.w3.org/2000/svg"><path fill="none" d="M0 0h24v24H0z"/><circle cx="16.5" cy="2.38" r="2"/><path d="M24 11.88v-4.7l-5.05-2.14c-.97-.41-2.09-.06-2.65.84l-1 1.6c-.67 1.18-1.91 2.06-3.41 2.32l.06.06c.69.69 1.52 1.07 2.46 1.17.8-.42 1.52-.98 2.09-1.64l.6 3-1.16 1.1-.94.89v7.5h2v-6l2.1-2 1.8 8H23l-2.18-11-.62-3.1 1.8.7v3.4h2zM10.29 8.09c.22.15.47.24.72.29.13.02.25.04.38.04s.26-.01.38-.04c.13-.02.25-.06.37-.11.24-.1.47-.24.66-.44.49-.49.67-1.17.55-1.8-.07-.37-.25-.74-.55-1.03-.19-.19-.42-.34-.66-.44-.12-.05-.24-.09-.37-.11s-.25-.04-.38-.04c-.12 0-.23.01-.35.03-.14.02-.28.06-.41.11-.23.11-.46.26-.65.45-.3.29-.48.66-.55 1.03-.12.63.06 1.31.55 1.8.09.1.2.18.31.26z"/><path d="M11.24 10.56l-2-2c-.1-.1-.2-.18-.31-.26a1.93 1.93 0 0 0-.72-.28c-.13-.03-.25-.04-.38-.04-.51 0-1.02.2-1.41.59l-3.34 3.34c-.41.41-.62.98-.58 1.54 0 .18.04.37.11.55l1.07 2.95-3.63 3.63L1.46 22l4.24-4.24v-2.22L7 16.75v5.13h2v-6l-2.12-2.12 2.36-2.36.71.71c1.29 1.26 2.97 2.04 5.03 2.04l-.14-2.07c-1.5-.02-2.7-.62-3.6-1.52z"/></symbol><symbol fill="currentColor" viewBox="0 0 24 24" id="sports-mma" xmlns="http://www.w3.org/2000/svg"><path fill="none" d="M0 0h24v24H0z"/><path d="M7 20c0 .55.45 1 1 1h8c.55 0 1-.45 1-1v-3H7v3zM18 7c-.55 0-1 .45-1 1V5c0-1.1-.9-2-2-2H7c-1.1 0-2 .9-2 2v5.8c0 .13.01.26.04.39l.8 4c.09.47.5.8.98.8h10.36c.45 0 .89-.36.98-.8l.8-4c.03-.13.04-.26.04-.39V8c0-.55-.45-1-1-1zm-3 3H7V7h8v3z"/></symbol><symbol fill="currentColor" viewBox="0 0 24 24" id="sports-motorsports" xmlns="http://www.w3.org/2000/svg"><path fill="none" d="M0 0h24v24H0z"/><path d="M12 11.39c0-.65-.39-1.23-.98-1.48L5.44 7.55c-1.48 1.68-2.32 3.7-2.8 5.45h7.75c.89 0 1.61-.72 1.61-1.61z"/><path d="M21.96 11.22c-.41-4.41-4.56-7.49-8.98-7.2-2.51.16-4.44.94-5.93 2.04l4.74 2.01c1.33.57 2.2 1.87 2.2 3.32 0 1.99-1.62 3.61-3.61 3.61H2.21C2 16.31 2 17.2 2 17.2v.8c0 1.1.9 2 2 2h10c4.67 0 8.41-4.01 7.96-8.78z"/></symbol><symbol fill="currentColor" viewBox="0 0 24 24" id="sports-rugby" xmlns="http://www.w3.org/2000/svg"><path fill="none" d="M0 0h24v24H0z"/><path d="M20.49 3.51c-.56-.56-2.15-.97-4.16-.97-3.08 0-7.15.96-9.98 3.79-4.69 4.7-4.25 12.74-2.84 14.16.56.56 2.15.97 4.16.97 3.08 0 7.15-.96 9.98-3.79 4.69-4.7 4.25-12.74 2.84-14.16zM7.76 7.76c2.64-2.64 6.35-3.12 8.03-3.19-2.05.94-4.46 2.45-6.61 4.61a23.462 23.462 0 0 0-4.62 6.63c.1-2.48.88-5.74 3.2-8.05zm8.48 8.48c-2.64 2.64-6.35 3.12-8.03 3.19 2.05-.94 4.46-2.45 6.61-4.61 2.16-2.16 3.67-4.58 4.62-6.63-.1 2.48-.88 5.74-3.2 8.05z"/></symbol><symbol fill="currentColor" viewBox="0 0 24 24" id="sports-soccer" xmlns="http://www.w3.org/2000/svg"><path fill="none" d="M0 0h24v24H0z"/><path d="M12 2C6.48 2 2 6.48 2 12s4.48 10 10 10 10-4.48 10-10S17.52 2 12 2zm1 3.3l1.35-.95a8.01 8.01 0 0 1 4.38 3.34l-.39 1.34-1.35.46L13 6.7V5.3zm-3.35-.95L11 5.3v1.4L7.01 9.49l-1.35-.46-.39-1.34a8.103 8.103 0 0 1 4.38-3.34zM7.08 17.11l-1.14.1A7.938 7.938 0 0 1 4 12c0-.12.01-.23.02-.35l1-.73 1.38.48 1.46 4.34-.78 1.37zm7.42 2.48c-.79.26-1.63.41-2.5.41s-1.71-.15-2.5-.41l-.69-1.49.64-1.1h5.11l.64 1.11-.7 1.48zM14.27 15H9.73l-1.35-4.02L12 8.44l3.63 2.54L14.27 15zm3.79 2.21l-1.14-.1-.79-1.37 1.46-4.34 1.39-.47 1 .73c.01.11.02.22.02.34 0 1.99-.73 3.81-1.94 5.21z"/></symbol><symbol fill="currentColor" viewBox="0 0 24 24" id="sports-tennis" xmlns="http://www.w3.org/2000/svg"><path fill="none" d="M0 0h24v24H0z"/><path d="M19.52 2.49C17.18.15 12.9.62 9.97 3.55c-1.6 1.6-2.52 3.87-2.54 5.46-.02 1.58.26 3.89-1.35 5.5l-4.24 4.24 1.42 1.42 4.24-4.24c1.61-1.61 3.92-1.33 5.5-1.35s3.86-.94 5.46-2.54c2.92-2.93 3.4-7.21 1.06-9.55zm-9.2 9.19c-1.53-1.53-1.05-4.61 1.06-6.72s5.18-2.59 6.72-1.06c1.53 1.53 1.05 4.61-1.06 6.72s-5.18 2.59-6.72 1.06zM18 17c.53 0 1.04.21 1.41.59.78.78.78 2.05 0 2.83-.37.37-.88.58-1.41.58s-1.04-.21-1.41-.59c-.78-.78-.78-2.05 0-2.83.37-.37.88-.58 1.41-.58m0-2a3.998 3.998 0 0 0-2.83 6.83c.78.78 1.81 1.17 2.83 1.17a3.998 3.998 0 0 0 2.83-6.83A3.998 3.998 0 0 0 18 15z"/></symbol><symbol fill="currentColor" viewBox="0 0 24 24" id="sports-volleyball" xmlns="http://www.w3.org/2000/svg"><path fill="none" d="M0 0h24v24H0z"/><path d="M6 4.01C3.58 5.84 2 8.73 2 12c0 1.46.32 2.85.89 4.11L6 14.31V4.01zM11 11.42V2.05c-1.06.11-2.07.38-3 .79v10.32l3-1.74zM12 13.15l-8.11 4.68c.61.84 1.34 1.59 2.18 2.2L15 14.89l-3-1.74zM13 7.96v3.46l8.11 4.68c.42-.93.7-1.93.82-2.98L13 7.96zM8.07 21.2c1.21.51 2.53.8 3.93.8 3.34 0 6.29-1.65 8.11-4.16L17 16.04 8.07 21.2zM21.92 10.81c-.55-4.63-4.26-8.3-8.92-8.76v3.6l8.92 5.16z"/></symbol><symbol viewBox="0 0 24 24" id="undo" xmlns="http://www.w3.org/2000/svg"><path d="M0 0h24v24H0z" fill="none"/><path fill="currentColor" d="M12.5 8c-2.65 0-5.05.99-6.9 2.6L2 7v9h9l-3.62-3.62c1.39-1.16 3.16-1.88 5.12-1.88 3.54 0 6.55 2.31 7.6 5.5l2.37-.78C21.08 11.03 17.15 8 12.5 8z"/></symbol><symbol viewBox="0 0 24 24" class="dgicon-user" fill="currentColor" id="user" xmlns="http://www.w3.org/2000/svg"><path class="dgprimary" d="M12 12a5 5 0 1 1 0-10 5 5 0 0 1 0 10z"/><path class="dgsecondary" d="M21 20v-1a5 5 0 0 0-5-5H8a5 5 0 0 0-5 5v1c0 1.1.9 2 2 2h14a2 2 0 0 0 2-2z"/></symbol><symbol viewBox="0 0 50 50" id="user-female" xmlns="http://www.w3.org/2000/svg"><path fill="currentColor" d="M23.75 2C12.8 2 6 8.82 6 19.781c0 1.563.215 3.102.438 4.75.605 4.442 1.234 9.047-2.438 14.032a.975.975 0 0 0-.188.75c.047.269.211.503.438.656.168.11 4.152 2.71 13.25 3.718C19.805 46.465 22.45 48 25 48c2.563 0 5.227-1.527 7.531-4.313 9.094-1.015 13.324-3.578 13.5-3.687.242-.148.387-.41.438-.688a.967.967 0 0 0-.188-.78c-3.726-4.79-3.226-8.864-2.687-13.188.191-1.543.406-3.149.406-4.782 0-6.535-2.922-14.152-11.125-14.406C29.402 2.72 26.008 2 23.75 2zm8.094 15.344C33.328 18.922 36 22.53 36 28.28c0 7.672-4.766 13.782-4.813 13.844-.007.012.008.02 0 .031C29.22 44.63 27.023 46 25 46c-2.027 0-4.242-1.379-6.219-3.875-.008-.012-.023-.02-.031-.031C18.703 42.05 14 37.57 14 31c0-5.004 4.297-6.055 8.094-6.969.785-.187 1.515-.355 2.187-.562 4.489-1.39 6.64-4.344 7.563-6.125zM19.5 28a1.5 1.5 0 1 0 0 3 1.5 1.5 0 0 0 0-3zm11 0a1.5 1.5 0 1 0 0 3 1.5 1.5 0 0 0 0-3z"/></symbol><symbol viewBox="0 0 50 50" id="user-male" xmlns="http://www.w3.org/2000/svg"><path fill="currentColor" d="M24.719 2c-.63 0-1.246.016-1.844.063-.074.003-.145.023-.219.03-.523.048-1.035.11-1.531.188-.531.086-1.063.188-1.563.313-.023.004-.042.027-.062.031-1.055.27-2.031.625-2.938 1.063-.914.44-1.742.984-2.5 1.593-.374.305-.726.625-1.062.969-1.328 1.36-2.332 3.008-3 4.969-.16.472-.316.96-.438 1.469-.109.453-.203.93-.28 1.406-.052.308-.09.62-.126.937-.027.254-.074.489-.094.75-.046.59-.062 1.196-.062 1.813 0 .508.09 1.152.188 1.843.105.747.257 1.555.437 2.375.16.735.316 1.446.5 2.125l.063.25c.124.45.253.903.374 1.282-.292.25-.59.41-.874.843a4.48 4.48 0 0 0-.688 3c.422 3.575 2.664 4.852 3.406 5.22.285 1.671 1.149 3.734 2.563 5.843 1.515 2.262 3.61 4.434 6.156 5.656.047.024.078.07.125.094C22.168 47.223 23.465 48 25 48c1.535 0 2.832-.777 3.75-1.875.047-.023.078-.07.125-.094 2.54-1.226 4.59-3.394 6.094-5.656 1.398-2.105 2.246-4.18 2.531-5.844.734-.347 3.043-1.59 3.469-5.187a4.55 4.55 0 0 0-.719-3.032c-.29-.437-.582-.59-.875-.843.164-.52.36-1.106.531-1.75.012-.04.02-.086.032-.125l.062-.219c.18-.703.305-1.383.438-2.063.152-.785.289-1.558.374-2.312.028-.219.043-.441.063-.656A23.195 23.195 0 0 0 41 16c0-.27-.012-.578-.031-.875-.004-.043.004-.082 0-.125-.02-.246-.063-.488-.094-.75-.02-.145-.04-.293-.063-.438-.023-.144-.035-.289-.062-.437-.023-.117-.035-.227-.063-.344-.035-.164-.082-.336-.124-.5-.028-.105-.063-.21-.094-.312-.051-.176-.098-.356-.157-.531-.03-.098-.058-.188-.093-.282-.063-.168-.149-.332-.219-.5a10.218 10.218 0 0 0-.375-.781c-.055-.105-.098-.21-.156-.313-.078-.14-.192-.269-.282-.406-.066-.101-.117-.215-.187-.312-.094-.13-.18-.254-.281-.375-.078-.098-.168-.188-.25-.281-.102-.114-.203-.239-.313-.344-.101-.102-.207-.184-.312-.281a7.003 7.003 0 0 0-.688-.532c-.996-.699-2.183-1.156-3.593-1.25a8.334 8.334 0 0 0-1.282-1.437 8.358 8.358 0 0 0-.75-.625c-.031-.024-.062-.04-.093-.063-.032-.02-.063-.043-.094-.062a9.394 9.394 0 0 0-.907-.531 10.993 10.993 0 0 0-3.812-1.188c-.07-.008-.145-.023-.219-.031-.058-.008-.129.008-.187 0a15 15 0 0 0-1.5-.094zM32.5 14.375c.973 1.55 2.5 4.488 2.5 7.625.02 1.668.664 4.445 2.906 4.719.2.148.465.379.688.718.277.426.465.938.375 1.688-.383 3.223-2.625 3.844-2.625 3.844a1.003 1.003 0 0 0-.688.843c-.117 1.106-.953 3.348-2.343 5.438-1.391 2.09-3.301 4.082-5.407 5.063a.991.991 0 0 0-.406.343A3.006 3.006 0 0 1 25 46c-1.047 0-1.96-.54-2.5-1.344a.991.991 0 0 0-.406-.343c-2.114-.981-4.035-2.973-5.438-5.063-1.402-2.09-2.261-4.336-2.375-5.438a.995.995 0 0 0-.656-.812s-2.246-.676-2.625-3.906c-.09-.754.102-1.274.375-1.688.113-.172.25-.312.375-.437.078.02.168.031.25.031 1.973 0 2.656-3.285 3-5 .625-3.121 4.063-4 9-4 4.652 0 7.266-2.16 8.5-3.625zM19.5 27a1.5 1.5 0 1 0 0 3 1.5 1.5 0 0 0 0-3zm11 0a1.5 1.5 0 1 0 0 3 1.5 1.5 0 0 0 0-3z"/></symbol><symbol viewBox="0 0 24 24" class="djicon-user-group" id="users" xmlns="http://www.w3.org/2000/svg"><path fill="currentColor" class="djprimary" d="M12 13a3 3 0 0 1 3-3h4a3 3 0 0 1 3 3v3a1 1 0 0 1-1 1h-8a1 1 0 0 1-1-1 1 1 0 0 1-1 1H3a1 1 0 0 1-1-1v-3a3 3 0 0 1 3-3h4a3 3 0 0 1 3 3zM7 9a3 3 0 1 1 0-6 3 3 0 0 1 0 6zm10 0a3 3 0 1 1 0-6 3 3 0 0 1 0 6z"/><path fill="currentColor" class="djsecondary" d="M12 13a3 3 0 1 1 0-6 3 3 0 0 1 0 6zm-3 1h6a3 3 0 0 1 3 3v3a1 1 0 0 1-1 1H7a1 1 0 0 1-1-1v-3a3 3 0 0 1 3-3z"/></symbol><symbol fill="currentColor" viewBox="0 0 24 24" id="visibility-off" xmlns="http://www.w3.org/2000/svg"><path d="M0 0h24v24H0zm0 0h24v24H0zm0 0h24v24H0zm0 0h24v24H0z" fill="none"/><path d="M12 7c2.76 0 5 2.24 5 5 0 .65-.13 1.26-.36 1.83l2.92 2.92c1.51-1.26 2.7-2.89 3.43-4.75-1.73-4.39-6-7.5-11-7.5-1.4 0-2.74.25-3.98.7l2.16 2.16C10.74 7.13 11.35 7 12 7zM2 4.27l2.28 2.28.46.46A11.804 11.804 0 0 0 1 12c1.73 4.39 6 7.5 11 7.5 1.55 0 3.03-.3 4.38-.84l.42.42L19.73 22 21 20.73 3.27 3 2 4.27zM7.53 9.8l1.55 1.55c-.05.21-.08.43-.08.65 0 1.66 1.34 3 3 3 .22 0 .44-.03.65-.08l1.55 1.55c-.67.33-1.41.53-2.2.53-2.76 0-5-2.24-5-5 0-.79.2-1.53.53-2.2zm4.31-.78l3.15 3.15.02-.16c0-1.66-1.34-3-3-3l-.17.01z"/></symbol><symbol fill="currentColor" viewBox="0 0 24 24" id="visibility-on" xmlns="http://www.w3.org/2000/svg"><path d="M0 0h24v24H0z" fill="none"/><path d="M12 4.5C7 4.5 2.73 7.61 1 12c1.73 4.39 6 7.5 11 7.5s9.27-3.11 11-7.5c-1.73-4.39-6-7.5-11-7.5zM12 17c-2.76 0-5-2.24-5-5s2.24-5 5-5 5 2.24 5 5-2.24 5-5 5zm0-8c-1.66 0-3 1.34-3 3s1.34 3 3 3 3-1.34 3-3-1.34-3-3-3z"/></symbol><symbol viewBox="0 0 24 24" id="warning" xmlns="http://www.w3.org/2000/svg"><path d="M0 0h24v24H0z" fill="none"/><path fill="currentColor" d="M1 21h22L12 2 1 21zm12-3h-2v-2h2v2zm0-4h-2v-4h2v4z"/></symbol></svg>