<svg width="50px" height="50px" viewBox="0 0 50 50" version="1.1" xmlns="http://www.w3.org/2000/svg" xmlns:xlink="http://www.w3.org/1999/xlink">
    <title>Atom/Icon/Verzeichnis-geöffnet</title>
    <g id="Atom/Icon/Verzeichnis-geöffnet" stroke="none" stroke-width="1" fill="none" fill-rule="evenodd">
        <path d="M1.513991,43.7184215 C0.686392332,43.7184215 0.0154910502,43.0475202 0.0154910502,42.2199216 L0.0139725432,41.4946729 C-0.0521663119,41.2470765 -0.0874249274,40.9868665 -0.0874249274,40.7184215 C-0.0874249274,40.4658506 -0.0555293956,40.2142906 0.00750469831,39.9697119 L0.00750469831,39.9697119 L0.0145750726,39.9385785 L0.0154910502,7.97987844 C0.0154910502,7.04193328 0.775845837,6.28157849 1.713791,6.28157849 L17.2883928,6.28157849 C17.935276,6.28157849 18.5259846,6.64907151 18.8118575,7.2293599 L20.8904242,11.4486067 L42.200888,11.4486067 C43.0284866,11.4486067 43.6993879,12.119508 43.6993879,12.9471066 L43.6985751,14.8545785 L47.0874249,14.8546332 C48.6851058,14.8546332 49.9910858,16.1035531 50.0823322,17.6783604 L50.0874249,17.8546332 C50.0874249,18.0511123 50.068123,18.2471162 50.0297973,18.4398211 L50.0297973,18.4398211 L45.4825776,41.3036095 C45.2033933,42.7073709 43.97146,43.7184215 42.5402053,43.7184215 L42.5402053,43.7184215 L1.513991,43.7184215 Z M47.0874249,16.8546332 L43.6985751,16.8545785 L43.6985751,40.0175785 L48.0682157,18.0496958 C48.0746033,18.0175783 48.0794056,17.9851859 48.082611,17.9526363 L48.0874249,17.8546332 C48.0874249,17.3023484 47.6397097,16.8546332 47.0874249,16.8546332 L47.0874249,16.8546332 Z" id="Combined-Shape" fill="currentColor" fill-rule="nonzero"></path>
    </g>
</svg>