<?xml version="1.0" encoding="UTF-8"?>
<svg width="50px" height="50px" viewBox="0 0 50 50" version="1.1" xmlns="http://www.w3.org/2000/svg" xmlns:xlink="http://www.w3.org/1999/xlink">
    <title>Atom/Icon/Verzeichnis-geöffnet-Austausch</title>
    <g id="Atom/Icon/Verzeichnis-geöffnet-Austausch" stroke="none" stroke-width="1" fill="none" fill-rule="evenodd">
        <path d="M1.60141593,43.7184215 C0.77381726,43.7184215 0.102915978,43.0475202 0.102915978,42.2199216 L0.101397471,41.4946729 C0.0352586155,41.2470765 -2.84217094e-14,40.9868665 -2.84217094e-14,40.7184215 C-2.84217094e-14,40.4658506 0.0318955318,40.2142906 0.0949296257,39.9697119 L0.0949296257,39.9697119 L0.102,39.9385785 L0.102915978,7.97987844 C0.102915978,7.04193328 0.863270764,6.28157849 1.80121593,6.28157849 L17.3758177,6.28157849 C18.022701,6.28157849 18.6134096,6.64907151 18.8992824,7.2293599 L20.9778491,11.4486067 L42.2883129,11.4486067 C43.1159116,11.4486067 43.7868128,12.119508 43.7868128,12.9471066 L43.786,14.8545785 L47.1748499,14.8546332 C48.7725307,14.8546332 50.0785107,16.1035531 50.1697572,17.6783604 L50.1748499,17.8546332 C50.1748499,18.0511123 50.1555479,18.2471162 50.1172222,18.4398211 L50.1172222,18.4398211 L45.5700026,41.3036095 C45.2908182,42.7073709 44.0588849,43.7184215 42.6276302,43.7184215 L42.6276302,43.7184215 L1.60141593,43.7184215 Z M47.1748499,16.8546332 L43.786,16.8545785 L43.786,40.0175785 L48.1556406,18.0496958 C48.1620283,18.0175783 48.1668306,17.9851859 48.170036,17.9526363 L48.1748499,17.8546332 C48.1748499,17.3023484 47.7271346,16.8546332 47.1748499,16.8546332 L47.1748499,16.8546332 Z" id="Combined-Shape" fill="currentColor" fill-rule="nonzero"></path>
        <path d="M15.7647432,29.0266046 C16.2571713,28.5552095 17.0715288,28.8394391 17.1748611,29.5193391 L17.1748611,29.5193391 L17.1826276,29.6321685 L17.1821307,31.704023 L30.4694435,31.7030136 C31.0531327,31.7030136 31.5336739,32.1446423 31.5951519,32.7119843 L31.5951519,32.7119843 L31.6017964,32.8353666 C31.6017964,33.4035948 31.180968,33.8816709 30.6059544,33.9591009 L30.6059544,33.9591009 L30.469461,33.9677195 L17.1821307,33.969023 L17.1826276,36.1562654 C17.1826276,36.7984412 16.5002588,37.18392 15.9501618,36.8945164 L15.9501618,36.8945164 L15.8546248,36.8363543 L15.7676577,36.7645545 L12.3436501,33.5181643 C12.0384535,33.2287995 11.9963109,32.7600447 12.2385233,32.4221162 L12.2385233,32.4221162 L12.2529447,32.4038547 L12.3407355,32.3043628 Z M27.9191537,17.8280978 L31.3431613,21.105856 L31.4309522,21.2053479 L31.4453736,21.2236094 C31.687586,21.5615379 31.6454433,22.0302927 31.3402468,22.3196574 L27.9162391,25.5660477 L27.8292721,25.6378475 L27.733735,25.6960096 C27.1836381,25.9854132 26.5012692,25.5999344 26.5012692,24.9577586 L26.5018651,22.7705161 L13.2144358,22.7692127 L13.0779425,22.760594 C12.5029289,22.683164 12.0821004,22.205088 12.0821004,21.6368597 L12.0887449,21.5134774 C12.1502229,20.9461355 12.6307642,20.5045068 13.2144534,20.5045068 L26.5018651,20.5055161 L26.5012692,18.4336617 L26.5090357,18.3208323 C26.6123681,17.6409322 27.4267255,17.3567027 27.9191537,17.8280978 Z" id="Combined-Shape" fill="var(--sgbp-icon-color-secondary)" fill-rule="nonzero"></path>
    </g>
</svg>