<svg width="50px" height="50px" viewBox="0 0 50 50" version="1.1" xmlns="http://www.w3.org/2000/svg" xmlns:xlink="http://www.w3.org/1999/xlink">
    <g id="Atom/Icon/Verzeichnis-geschlossen-Austausch" stroke="none" stroke-width="1" fill="none" fill-rule="evenodd">
        <path d="M0,11.1670282 L0,7.69829995 C1.07179451e-16,6.76035479 0.760354786,6 1.69829995,6 L17.2729018,6 C17.919785,6 18.5104936,6.36749302 18.7963664,6.94778141 L20.8749331,11.1670282 L20.8749331,11.1670282 L42.1853969,11.1670282 C43.0129956,11.1670282 43.6838969,11.8379295 43.6838969,12.6655282 L43.6838969,41.9383431 C43.6838969,42.7659417 43.0129956,43.436843 42.1853969,43.436843 L1.49849995,43.436843 C0.670901282,43.436843 1.43361924e-15,42.7659417 0,41.9383431 L0,11.1670282 L0,11.1670282 Z" id="Rectangle-Copy-2" fill="currentColor" fill-rule="nonzero"></path>
        <path d="M15.7647432,29.0266046 C16.2571713,28.5552095 17.0715288,28.8394391 17.1748611,29.5193391 L17.1748611,29.5193391 L17.1826276,29.6321685 L17.1821307,31.704023 L30.4694435,31.7030136 C31.0531327,31.7030136 31.5336739,32.1446423 31.5951519,32.7119843 L31.5951519,32.7119843 L31.6017964,32.8353666 C31.6017964,33.4035948 31.180968,33.8816709 30.6059544,33.9591009 L30.6059544,33.9591009 L30.469461,33.9677195 L17.1821307,33.969023 L17.1826276,36.1562654 C17.1826276,36.7984412 16.5002588,37.18392 15.9501618,36.8945164 L15.9501618,36.8945164 L15.8546248,36.8363543 L15.7676577,36.7645545 L12.3436501,33.5181643 C12.0384535,33.2287995 11.9963109,32.7600447 12.2385233,32.4221162 L12.2385233,32.4221162 L12.2529447,32.4038547 L12.3407355,32.3043628 Z M27.9191537,17.8280978 L31.3431613,21.105856 L31.4309522,21.2053479 L31.4453736,21.2236094 C31.687586,21.5615379 31.6454433,22.0302927 31.3402468,22.3196574 L27.9162391,25.5660477 L27.8292721,25.6378475 L27.733735,25.6960096 C27.1836381,25.9854132 26.5012692,25.5999344 26.5012692,24.9577586 L26.5018651,22.7705161 L13.2144358,22.7692127 L13.0779425,22.760594 C12.5029289,22.683164 12.0821004,22.205088 12.0821004,21.6368597 L12.0887449,21.5134774 C12.1502229,20.9461355 12.6307642,20.5045068 13.2144534,20.5045068 L26.5018651,20.5055161 L26.5012692,18.4336617 L26.5090357,18.3208323 C26.6123681,17.6409322 27.4267255,17.3567027 27.9191537,17.8280978 Z" id="Combined-Shape" fill="var(--sgbp-icon-color-secondary)" fill-rule="nonzero"></path>
    </g>
</svg>