<?xml version="1.0" encoding="utf-8"?>
<svg version="1.1" xmlns="http://www.w3.org/2000/svg" viewBox="0 0 1000 1000" enable-background="new 0 0 1000 1000" xml:space="preserve">
<g><g transform="translate(0.000000,511.000000) scale(0.100000,-0.100000)" fill="currentColor"><path d="M7180.2,4761.8l-248.2-248.2l1236.9-1236.9l1234.7-1234.7l248.2,248.2l248.2,248.2L8663.1,3775.3L7428.4,5010L7180.2,4761.8z"/><path d="M5787.9,4621.5l-345.4-345.4l1862.9-1860.7L9166.1,552.5l345.4,345.4c190,190,345.4,354,345.4,367c0,28.1-3673.9,3702-3702,3702C6141.9,4966.8,5977.8,4811.4,5787.9,4621.5z"/><path d="M4924.4,3758l-345.4-345.4l740.4-740.4l738.2-738.2L4617.9,494.2L3176-947.7l-738.2,738.2l-740.4,740.4L1352,185.6c-190-189.9-345.4-354-345.4-367c0-28.1,3673.9-3702,3702-3702c13,0,177,155.4,367,345.4l345.4,345.4l-740.4,740.4L3942.3-1714L5382.1-274.2L6824,1167.7l738.2-738.2l740.4-740.4L8648,34.5c190,189.9,345.4,354,345.4,367c0,28.1-3673.9,3702-3702,3702C5278.5,4103.4,5114.4,3948,4924.4,3758z"/><path d="M482.1-684.4C296.4-870,143.2-1034.1,143.2-1044.8c0-28.1,3673.9-3702,3702-3702c12.9,0,177,155.4,367,345.4l345.4,345.4L2701.1-2199.7C1680.1-1178.7,840.4-343.3,833.9-343.3S669.9-496.6,482.1-684.4z"/><path d="M341.8-2076.7L100-2318.4l1236.9-1236.9L2571.6-4790l248.2,248.2l248.2,248.2L1837.7-3063.1C1162-2385.3,602.9-1832.7,596.5-1832.7C590-1832.7,475.6-1942.8,341.8-2076.7z"/></g></g>
</svg>