<svg width="50px" height="50px" viewBox="0 0 50 50" version="1.1" xmlns="http://www.w3.org/2000/svg" xmlns:xlink="http://www.w3.org/1999/xlink">
    <title>Atom/Icon/Datei-Austausch</title>
    <g id="Atom/Icon/Datei-Austausch" stroke="none" stroke-width="1" fill="none" fill-rule="evenodd">
        <path d="M40.8674187,8 L40.8674187,44.7542664 L10.5710267,44.7542664 L10.5710267,42.7542664 L38.8666149,42.754 L38.8674187,8 L40.8674187,8 Z M36.5118037,4 L36.5118037,40.7542664 L6.21541183,40.7542664 L6.21541183,4 L36.5118037,4 Z" id="Combined-Shape" fill="currentColor" fill-rule="nonzero"></path>
        <path d="M15.2864025,24.110054 C15.7788307,23.6386589 16.5931881,23.9228884 16.6965205,24.6027885 L16.6965205,24.6027885 L16.704287,24.7156179 L16.7037901,26.7874724 L29.9911028,26.786463 C30.574792,26.786463 31.0553333,27.2280917 31.1168113,27.7954336 L31.1168113,27.7954336 L31.1234558,27.918816 C31.1234558,28.4870442 30.7026273,28.9651203 30.1276137,29.0425502 L30.1276137,29.0425502 L29.9911204,29.0511689 L16.7037901,29.0524724 L16.704287,31.2397148 C16.704287,31.8818906 16.0219182,32.2673694 15.4718212,31.9779658 L15.4718212,31.9779658 L15.3762841,31.9198037 L15.2893171,31.8480039 L11.8653094,28.6016137 C11.5601129,28.3122489 11.5179703,27.8434941 11.7601826,27.5055656 L11.7601826,27.5055656 L11.7746041,27.4873041 L11.8623949,27.3878122 Z M27.4408131,12.9115472 L30.8648207,16.1893054 L30.9526115,16.2887973 L30.9670329,16.3070588 C31.2092453,16.6449873 31.1671027,17.1137421 30.8619061,17.4031068 L27.4378985,20.6494971 L27.3509314,20.7212969 L27.2553944,20.7794589 C26.7052974,21.0688626 26.0229286,20.6833837 26.0229286,20.041208 L26.0235245,17.8539655 L12.7360952,17.8526621 L12.5996018,17.8440434 C12.0245882,17.7666134 11.6037598,17.2885373 11.6037598,16.7203091 L11.6104043,16.5969268 C11.6718823,16.0295849 12.1524236,15.5879562 12.7361127,15.5879562 L26.0235245,15.5889655 L26.0229286,13.517111 L26.0306951,13.4042817 C26.1340274,12.7243816 26.9483849,12.4401521 27.4408131,12.9115472 Z" id="Combined-Shape" fill="var(--sgbp-icon-color-secondary)" fill-rule="nonzero"></path>
    </g>
</svg>