<?xml version="1.0" encoding="UTF-8" standalone="no"?>
<svg xmlns:svg="http://www.w3.org/2000/svg" xmlns="http://www.w3.org/2000/svg" version="1.1" width="76" height="76"
     viewBox="0 0 76 76" id="svg2">
    <g transform="matrix(3.6537893,0,0,3.6537893,-100.39085,-100.38715)" id="Screens" style="fill:none;stroke:none">
        <g id="search" style="fill:#979797">
            <g transform="translate(28,28)" id="Icon_Suche">
                <path d="m 13.707107,13.707107 c 0.390524,-0.390524 1.027452,-0.386762 1.412113,-0.0021 l 4.246841,4.24684 c 0.389364,0.389365 0.391147,1.018867 -0.0021,1.412114 l 0,0 c -0.390524,0.390524 -1.027452,0.386762 -1.412114,0.0021 l -4.24684,-4.246841 c -0.389365,-0.389364 -0.391147,-1.018866 0.0021,-1.412113 l 0,0 0,0 z"
                      id="Rectangle-50"/>
                <path d="m 7.5,13 0,0 C 10.537566,13 13,10.537566 13,7.5 13,4.4624339 10.537566,2 7.5,2 4.4624339,2 2,4.4624339 2,7.5 2,10.537566 4.4624339,13 7.5,13 l 0,0 0,0 0,0 0,0 0,0 z m 0,2 0,0 C 3.3578644,15 0,11.642136 0,7.5 0,3.3578644 3.3578644,0 7.5,0 11.642136,0 15,3.3578644 15,7.5 15,11.642136 11.642136,15 7.5,15 l 0,0 0,0 0,0 0,0 0,0 z"
                      id="Oval-41"/>
            </g>
        </g>
    </g>
</svg>
